<svg xmlns="http://www.w3.org/2000/svg" viewBox="0 0 201.95 187.95"><defs><style>.cls-1{fill:#004e26;}.cls-2{fill:#469747;}.cls-3{fill:#66a756;}.cls-4{fill:#9b9da0;}.cls-5{fill:#808285;}.cls-6{fill:#67686b;}.cls-7{fill:#414042;}.cls-8{fill:#a7a9ac;stroke:#231f20;stroke-linecap:round;}.cls-8,.cls-9{stroke-miterlimit:10;stroke-width:2.45px;}.cls-9{fill:none;stroke:#6d6e71;}</style></defs><g id="Layer_2" data-name="Layer 2"><g id="Mountains"><path class="cls-1" d="M191.61,115.69c0,50.06-40.58,69.71-90.63,69.71s-90.64-19.65-90.64-69.71a90.64,90.64,0,0,1,181.27,0Z"/><path class="cls-2" d="M105.24,113.66c7,10.88-7.31,21-7.31,21v-4.89C99.59,132.44,105.24,113.66,105.24,113.66Z"/><path class="cls-2" d="M103.41,23.63c.14,1.32,0,5.73-5.48,5.23l0-.95a1.52,1.52,0,0,0,.16-.65,1.34,1.34,0,0,0,0-.2,2.89,2.89,0,0,1,2.41-1.78C102.33,25.07,103.28,24.21,103.41,23.63Z"/><path class="cls-2" d="M103.41,76.52c.14,1.33,0,5.73-5.48,5.24l0-1a1.44,1.44,0,0,0,.16-.64,1.34,1.34,0,0,0,0-.2,2.86,2.86,0,0,1,2.41-1.78C102.33,78,103.28,77.11,103.41,76.52Z"/><path class="cls-2" d="M77.63,9.37a21.84,21.84,0,0,0-2.41.61,16,16,0,0,0,2.41,2.75C80.36,15.24,85.19,18,91,14.09V12.22S86.13,7.7,77.63,9.37Z"/><path class="cls-2" d="M87,53a6.48,6.48,0,0,1-3.42-2.79,4.19,4.19,0,0,1-.47-1.62,15.84,15.84,0,0,0,.47,4.31A6.59,6.59,0,0,0,87,57.56a5.68,5.68,0,0,0,2.67.41V53.73A11.73,11.73,0,0,1,87,53Z"/><path class="cls-2" d="M89.54,83.27l-.11,3.48c-10.65.68-9.89-14.15-9.89-14.15,0,.21,0,.4.08.59C80.67,79.21,89.54,83.27,89.54,83.27Z"/><polygon class="cls-3" points="97.93 185.38 93.89 185.27 89.54 185.05 89.54 2.48 97.93 2.48 97.93 185.38"/><ellipse class="cls-2" cx="93.74" cy="2.48" rx="4.2" ry="2.48"/><path class="cls-2" d="M79.77,122c7,10.88-7.3,20.94-7.3,20.94v-4.89C74.12,140.78,79.77,122,79.77,122Z"/><path class="cls-2" d="M77.94,32.06c.15,1.33,0,5.73-5.47,5.23l0-.95a1.45,1.45,0,0,0,.16-.65c0-.06,0-.13,0-.19a2.88,2.88,0,0,1,2.41-1.79C76.87,33.51,77.82,32.65,77.94,32.06Z"/><path class="cls-2" d="M77.94,84.92c.15,1.32,0,5.72-5.47,5.22l0-1a1.44,1.44,0,0,0,.16-.64c0-.07,0-.13,0-.2a2.89,2.89,0,0,1,2.41-1.78C76.87,86.36,77.82,85.51,77.94,84.92Z"/><path class="cls-2" d="M52.17,17.82a21.84,21.84,0,0,0-2.41.61,16.45,16.45,0,0,0,2.41,2.75c2.73,2.5,7.55,5.26,13.32,1.35V20.67S60.66,16.15,52.17,17.82Z"/><path class="cls-2" d="M61.52,61.4a6.43,6.43,0,0,1-3.42-2.79A4.09,4.09,0,0,1,57.63,57a15.84,15.84,0,0,0,.47,4.31A6.52,6.52,0,0,0,61.52,66a5.68,5.68,0,0,0,2.67.41V62.14A11.73,11.73,0,0,1,61.52,61.4Z"/><path class="cls-2" d="M64.08,91.66,64,95.14C53.31,95.82,54.08,81,54.08,81c0,.21.05.41.08.6C55.21,87.6,64.08,91.66,64.08,91.66Z"/><polygon class="cls-3" points="72.47 182.99 67.98 182.09 64.08 181.17 64.08 10.93 72.47 10.93 72.47 182.99"/><ellipse class="cls-2" cx="68.27" cy="10.93" rx="4.2" ry="2.48"/><path class="cls-2" d="M9.43,127c-7,9.61,7.3,18.51,7.3,18.51v-4.33C15.08,143.58,9.43,127,9.43,127Z"/><path class="cls-2" d="M11.26,65.19c-.14,1.17,0,5.06,5.47,4.62l0-.84a1.08,1.08,0,0,1-.17-.57.88.88,0,0,1,0-.17,2.87,2.87,0,0,0-2.41-1.58C12.34,66.47,11.39,65.71,11.26,65.19Z"/><path class="cls-2" d="M11.26,111.9c-.14,1.18,0,5.06,5.47,4.62l0-.84a1.06,1.06,0,0,1-.17-.57,1,1,0,0,1,0-.17,2.87,2.87,0,0,0-2.41-1.58C12.34,113.18,11.39,112.42,11.26,111.9Z"/><path class="cls-2" d="M37,52.6c.77.14,1.57.31,2.41.54A14.79,14.79,0,0,1,37,55.57c-2.73,2.22-7.55,4.65-13.31,1.2V55.12S28.54,51.13,37,52.6Z"/><path class="cls-2" d="M27.69,91.12a6.41,6.41,0,0,0,3.42-2.46,3.5,3.5,0,0,0,.47-1.43A12.83,12.83,0,0,1,31.11,91a5.94,5.94,0,0,1-3.42,4.12,6.43,6.43,0,0,1-2.67.36V91.78A13.64,13.64,0,0,0,27.69,91.12Z"/><path class="cls-2" d="M25.13,117.86l.1,3.07c10.66.61,9.89-12.49,9.89-12.49,0,.18,0,.35-.07.52C34,114.27,25.13,117.86,25.13,117.86Z"/><polygon class="cls-3" points="16.71 147.84 18.14 150.26 19.75 152.65 22.47 156.11 24.9 158.95 25.13 46.52 16.73 46.52 16.71 147.84"/><ellipse class="cls-2" cx="20.93" cy="46.52" rx="4.2" ry="2.19"/><path class="cls-2" d="M98,123c-7,11,7.31,21.23,7.31,21.23v-5C103.62,142.06,98,123,98,123Z"/><path class="cls-2" d="M99.8,31.77c-.14,1.35,0,5.81,5.48,5.31l0-1a1.49,1.49,0,0,1-.16-.66,1.21,1.21,0,0,1,0-.19,2.9,2.9,0,0,0-2.41-1.81C100.88,33.24,99.93,32.37,99.8,31.77Z"/><path class="cls-2" d="M99.8,85.39c-.14,1.34,0,5.81,5.48,5.3l0-1a1.53,1.53,0,0,1-.16-.66,1.34,1.34,0,0,1,0-.2,2.91,2.91,0,0,0-2.41-1.81C100.88,86.85,99.93,86,99.8,85.39Z"/><path class="cls-2" d="M125.58,17.32a24.46,24.46,0,0,1,2.41.62,16.16,16.16,0,0,1-2.41,2.79c-2.73,2.54-7.56,5.34-13.32,1.37V20.21S117.08,15.63,125.58,17.32Z"/><path class="cls-2" d="M116.23,61.53a6.44,6.44,0,0,0,3.42-2.82,4.53,4.53,0,0,0,.47-1.64,16.3,16.3,0,0,1-.47,4.37c-.49,1.89-1.47,3.87-3.42,4.73a5.67,5.67,0,0,1-2.67.42v-4.3A11.83,11.83,0,0,0,116.23,61.53Z"/><path class="cls-2" d="M113.67,92.23l.11,3.52c10.65.69,9.89-14.34,9.89-14.34,0,.21,0,.41-.08.6C122.54,88.11,113.67,92.23,113.67,92.23Z"/><polygon class="cls-3" points="105.28 185.35 109.47 185.21 113.67 184.96 113.67 10.34 105.28 10.34 105.28 185.35"/><ellipse class="cls-2" cx="109.47" cy="10.34" rx="4.2" ry="2.51"/><path class="cls-2" d="M89.1,113.86c5.21,8.17-5.4,15.72-5.4,15.72v-3.67C84.92,128,89.1,113.86,89.1,113.86Z"/><path class="cls-2" d="M88,50.11c4.19,6.56-4.34,12.64-4.34,12.64v-3C84.68,61.44,88,50.11,88,50.11Z"/><path class="cls-2" d="M89.17,18.17c.14,1.35,0,5.81-5.47,5.3l0-1a1.38,1.38,0,0,0,.17-.66,1.23,1.23,0,0,0,0-.19,2.91,2.91,0,0,1,2.41-1.81C88.09,19.64,89.05,18.77,89.17,18.17Z"/><path class="cls-2" d="M89.17,91c.14,1.34,0,5.81-5.47,5.3l0-1a1.41,1.41,0,0,0,.17-.66,1.36,1.36,0,0,0,0-.2,2.93,2.93,0,0,1,2.41-1.81C88.09,92.48,89.05,91.62,89.17,91Z"/><path class="cls-2" d="M89.17,35.83c.14,1.35,0,5.81-5.47,5.31l0-1a1.37,1.37,0,0,0,.17-.65,1.23,1.23,0,0,0,0-.2,2.91,2.91,0,0,1,2.41-1.81C88.09,37.3,89.05,36.43,89.17,35.83Z"/><path class="cls-2" d="M71,105.55c-.5.1-1,.23-1.54.39A10.9,10.9,0,0,0,71,107.72c1.74,1.61,4.8,3.39,8.47.87v-1.2A9.8,9.8,0,0,0,71,105.55Z"/><path class="cls-2" d="M71,159.28a13.91,13.91,0,0,0-1.54.39A10.9,10.9,0,0,0,71,161.45c1.74,1.61,4.8,3.39,8.47.87v-1.2A9.8,9.8,0,0,0,71,159.28Z"/><path class="cls-2" d="M76.77,71a6.44,6.44,0,0,1-3.42-2.82,4.42,4.42,0,0,1-.47-1.64,16.76,16.76,0,0,0,.47,4.37c.49,1.9,1.47,3.88,3.42,4.73a5.67,5.67,0,0,0,2.67.42v-4.3A12,12,0,0,1,76.77,71Z"/><path class="cls-2" d="M79.5,33.09l-.11,3.53c-10.65.69-9.88-14.35-9.88-14.35,0,.21,0,.41.07.61C70.63,29,79.5,33.09,79.5,33.09Z"/><polygon class="cls-3" points="83.7 184.56 79.5 184.08 79.5 21.49 83.7 21.49 83.7 184.56"/><ellipse class="cls-2" cx="81.6" cy="21.49" rx="2.1" ry="1.51"/><path class="cls-2" d="M43,114.35c5.21,7.75-5.41,14.92-5.41,14.92v-3.48C38.82,127.72,43,114.35,43,114.35Z"/><path class="cls-2" d="M41.94,53.82c4.19,6.23-4.35,12-4.35,12V63C38.58,64.57,41.94,53.82,41.94,53.82Z"/><path class="cls-2" d="M43.07,23.49c.14,1.28,0,5.52-5.48,5l0-.92A1.36,1.36,0,0,0,37.8,27a1.15,1.15,0,0,0,0-.19,2.87,2.87,0,0,1,2.41-1.72C42,24.88,42.94,24.06,43.07,23.49Z"/><path class="cls-2" d="M43.07,92.66c.14,1.28,0,5.51-5.48,5l0-.91a1.4,1.4,0,0,0,.16-.63,1.09,1.09,0,0,0,0-.18,2.85,2.85,0,0,1,2.41-1.72C42,94.05,42.94,93.23,43.07,92.66Z"/><path class="cls-2" d="M43.07,40.26c.14,1.28,0,5.51-5.48,5l0-.92a1.36,1.36,0,0,0,.16-.62,1.15,1.15,0,0,0,0-.19,2.87,2.87,0,0,1,2.41-1.72C42,41.65,42.94,40.83,43.07,40.26Z"/><path class="cls-2" d="M24.92,106.45c-.49.1-1,.22-1.53.38a9.71,9.71,0,0,0,1.53,1.68c1.74,1.54,4.81,3.23,8.47.83V108.2S30.33,105.43,24.92,106.45Z"/><path class="cls-2" d="M24.92,157.47c-.49.09-1,.22-1.53.37a10,10,0,0,0,1.53,1.69c1.74,1.53,4.81,3.22,8.47.83v-1.14S30.33,156.45,24.92,157.47Z"/><path class="cls-2" d="M30.66,73.66A6.38,6.38,0,0,1,27.25,71a3.91,3.91,0,0,1-.47-1.55,14.71,14.71,0,0,0,.47,4.15,6.34,6.34,0,0,0,3.41,4.49,6,6,0,0,0,2.68.39V74.38A12.43,12.43,0,0,1,30.66,73.66Z"/><path class="cls-2" d="M33.39,37.66,33.29,41c-10.66.66-9.89-13.62-9.89-13.62,0,.2.05.39.08.58C24.53,33.74,33.39,37.66,33.39,37.66Z"/><polygon class="cls-3" points="37.59 169.79 35.37 168.34 33.4 166.92 33.4 26.64 37.59 26.64 37.59 169.79"/><ellipse class="cls-2" cx="35.49" cy="26.64" rx="2.1" ry="1.44"/><path class="cls-2" d="M182.28,117.41c5.21,6.4-5.4,12.32-5.4,12.32v-2.88C178.1,128.45,182.28,117.41,182.28,117.41Z"/><path class="cls-2" d="M181.22,67.43c4.19,5.15-4.34,9.91-4.34,9.91V75C177.86,76.31,181.22,67.43,181.22,67.43Z"/><path class="cls-2" d="M182.35,42.39c.14,1.06,0,4.56-5.47,4.16l0-.75a.92.92,0,0,0,.17-.52.77.77,0,0,0,0-.15,2.85,2.85,0,0,1,2.41-1.42C181.27,43.54,182.22,42.86,182.35,42.39Z"/><path class="cls-2" d="M182.35,99.5c.14,1.06,0,4.55-5.47,4.16l0-.76a.89.89,0,0,0,.17-.51.88.88,0,0,0,0-.16,2.89,2.89,0,0,1,2.41-1.42C181.27,100.65,182.22,100,182.35,99.5Z"/><path class="cls-2" d="M182.35,56.24c.14,1,0,4.55-5.47,4.16l0-.76a.89.89,0,0,0,.17-.51.78.78,0,0,0,0-.16,2.89,2.89,0,0,1,2.41-1.42C181.27,57.39,182.22,56.71,182.35,56.24Z"/><path class="cls-2" d="M164.2,110.89c-.49.08-1,.18-1.53.31a9,9,0,0,0,1.54,1.39,7.61,7.61,0,0,0,8.47.69v-1S169.61,110.05,164.2,110.89Z"/><path class="cls-2" d="M164.2,153c-.49.08-1,.18-1.53.31a9.53,9.53,0,0,0,1.54,1.39,7.6,7.6,0,0,0,8.47.68v-.94S169.61,152.17,164.2,153Z"/><path class="cls-2" d="M170,83.82a6.4,6.4,0,0,1-3.42-2.21,2.87,2.87,0,0,1-.47-1.29,10.13,10.13,0,0,0,.47,3.43,5.49,5.49,0,0,0,3.42,3.7,6.81,6.81,0,0,0,2.67.33V84.41A14.42,14.42,0,0,1,170,83.82Z"/><path class="cls-2" d="M172.68,54.09l-.11,2.76c-10.65.54-9.89-11.24-9.89-11.24,0,.16,0,.32.08.47C163.81,50.86,172.68,54.09,172.68,54.09Z"/><polygon class="cls-3" points="176.88 159.84 174.87 161.56 172.68 163.25 172.68 44.99 176.88 44.99 176.88 159.84"/><ellipse class="cls-2" cx="174.78" cy="44.99" rx="2.1" ry="1.19"/><path class="cls-2" d="M136.24,115.08c-5.2,8.17,5.41,15.72,5.41,15.72v-3.67C140.43,129.17,136.24,115.08,136.24,115.08Z"/><path class="cls-2" d="M137.3,51.33C133.12,57.89,141.65,64,141.65,64V61C140.67,62.65,137.3,51.33,137.3,51.33Z"/><path class="cls-2" d="M136.18,19.39c-.15,1.35,0,5.81,5.47,5.3l-.05-1a1.53,1.53,0,0,1-.16-.66c0-.06,0-.13,0-.19a2.89,2.89,0,0,0-2.4-1.82C137.25,20.85,136.3,20,136.18,19.39Z"/><path class="cls-2" d="M136.18,92.24c-.15,1.34,0,5.81,5.47,5.3l-.05-1a1.53,1.53,0,0,1-.16-.66c0-.07,0-.13,0-.2a2.9,2.9,0,0,0-2.4-1.81C137.25,93.7,136.3,92.83,136.18,92.24Z"/><path class="cls-2" d="M136.18,37.05c-.15,1.35,0,5.81,5.47,5.31l-.05-1a1.49,1.49,0,0,1-.16-.66c0-.06,0-.13,0-.19a2.88,2.88,0,0,0-2.4-1.81C137.25,38.52,136.3,37.65,136.18,37.05Z"/><path class="cls-2" d="M154.32,106.77c.5.1,1,.23,1.54.39a10.9,10.9,0,0,1-1.54,1.78c-1.74,1.61-4.81,3.39-8.47.87v-1.2A9.8,9.8,0,0,1,154.32,106.77Z"/><path class="cls-2" d="M154.32,160.49a14.63,14.63,0,0,1,1.54.4,10.62,10.62,0,0,1-1.54,1.77c-1.74,1.62-4.81,3.4-8.47.88v-1.21A9.84,9.84,0,0,1,154.32,160.49Z"/><path class="cls-2" d="M148.58,72.23A6.48,6.48,0,0,0,152,69.41a4.24,4.24,0,0,0,.46-1.64,16.5,16.5,0,0,1-.46,4.37c-.49,1.89-1.47,3.88-3.42,4.73a5.72,5.72,0,0,1-2.68.42V73A12,12,0,0,0,148.58,72.23Z"/><path class="cls-2" d="M145.85,34.31l.1,3.53c10.66.68,9.89-14.35,9.89-14.35a5.44,5.44,0,0,1-.08.6C154.71,30.19,145.85,34.31,145.85,34.31Z"/><polygon class="cls-3" points="141.65 180.1 143.85 179.42 145.85 178.76 145.85 22.71 141.65 22.71 141.65 180.1"/><ellipse class="cls-2" cx="143.75" cy="22.71" rx="2.1" ry="1.51"/><path class="cls-2" d="M63.34,66.65c7,9.82-7.31,18.9-7.31,18.9V81.13C57.69,83.59,63.34,66.65,63.34,66.65Z"/><path class="cls-2" d="M61.51,29.85c.14,1.2,0,5.17-5.48,4.72l0-.86a1.21,1.21,0,0,0,.16-.58,1.09,1.09,0,0,0,0-.18,2.87,2.87,0,0,1,2.41-1.61C60.43,31.16,61.38,30.38,61.51,29.85Z"/><path class="cls-2" d="M61.51,117.59c.14,1.2,0,5.17-5.48,4.72l0-.86a1.21,1.21,0,0,0,.16-.58,1.09,1.09,0,0,0,0-.18,2.87,2.87,0,0,1,2.41-1.61C60.43,118.9,61.38,118.12,61.51,117.59Z"/><path class="cls-2" d="M31.29,134c-.77.14-1.57.32-2.4.55A15.33,15.33,0,0,0,31.3,137c2.73,2.26,7.55,4.75,13.32,1.22v-1.68S39.79,132.49,31.29,134Z"/><path class="cls-2" d="M40.88,51.31a9.55,9.55,0,0,1-5.15-3.78,5.14,5.14,0,0,1-.7-2.2,19.5,19.5,0,0,0,.7,5.86c.73,2.54,2.21,5.2,5.15,6.34a9.42,9.42,0,0,0,4,.56V52.33A19.81,19.81,0,0,1,40.88,51.31Z"/><path class="cls-2" d="M45,104.73l-.1,3.14C34.2,108.48,35,95.1,35,95.1c0,.19.05.36.08.54C36.1,101.06,45,104.73,45,104.73Z"/><polygon class="cls-3" points="56.58 178.92 53.27 177.87 50.27 176.79 47.1 175.54 44.48 174.39 44.48 32.23 56.58 32.23 56.58 178.92"/><ellipse class="cls-2" cx="50.53" cy="32.23" rx="6.05" ry="2.77"/><path class="cls-2" d="M146.42,57.87c-7,10.82,7.3,20.83,7.3,20.83V73.83C152.07,76.54,146.42,57.87,146.42,57.87Z"/><path class="cls-2" d="M148.25,17.32c-.15,1.32,0,5.7,5.47,5.2l-.05-.95a1.44,1.44,0,0,1-.16-.64c0-.07,0-.13,0-.19a2.87,2.87,0,0,0-2.4-1.78C149.32,18.75,148.37,17.9,148.25,17.32Z"/><path class="cls-2" d="M148.25,114c-.15,1.32,0,5.7,5.47,5.2l-.05-.94a1.45,1.45,0,0,1-.16-.65c0-.06,0-.13,0-.19a2.89,2.89,0,0,0-2.4-1.78C149.32,115.45,148.37,114.6,148.25,114Z"/><path class="cls-2" d="M178.46,132.08a23,23,0,0,1,2.41.61,16,16,0,0,1-2.42,2.74c-2.73,2.49-7.55,5.23-13.31,1.34v-1.85S170,130.42,178.46,132.08Z"/><path class="cls-2" d="M168.88,41A9.77,9.77,0,0,0,174,36.8a6.49,6.49,0,0,0,.7-2.42,24,24,0,0,1-.7,6.45c-.74,2.8-2.21,5.73-5.15,7a8.7,8.7,0,0,1-4,.62V42.09A18.34,18.34,0,0,0,168.88,41Z"/><path class="cls-2" d="M164.79,99.84l.11,3.45c10.65.68,9.88-14.07,9.88-14.07a5.79,5.79,0,0,1-.07.6C173.66,95.79,164.79,99.84,164.79,99.84Z"/><polygon class="cls-3" points="153.17 175.89 156.99 174.11 160.18 172.41 163.21 170.64 165.27 169.36 165.27 19.94 153.17 19.94 153.17 175.89"/><ellipse class="cls-2" cx="159.22" cy="19.94" rx="6.05" ry="3.06"/><path class="cls-2" d="M113.67,49.31c-7,10.66,7.3,20.51,7.3,20.51V65C119.32,67.69,113.67,49.31,113.67,49.31Z"/><path class="cls-2" d="M115.5,9.39c-.14,1.29,0,5.6,5.47,5.12l0-.94a1.27,1.27,0,0,1-.17-.63,1.23,1.23,0,0,1,0-.19A2.92,2.92,0,0,0,118.37,11C116.58,10.8,115.63,10,115.5,9.39Z"/><path class="cls-2" d="M115.5,104.59c-.14,1.3,0,5.61,5.47,5.12l0-.93a1.29,1.29,0,0,1-.17-.63,1.11,1.11,0,0,1,0-.19,2.88,2.88,0,0,0-2.41-1.75C116.58,106,115.63,105.17,115.5,104.59Z"/><path class="cls-2" d="M145.71,122.38a24.2,24.2,0,0,1,2.41.6,15.78,15.78,0,0,1-2.41,2.69c-2.73,2.46-7.56,5.16-13.32,1.33v-1.83S137.21,120.75,145.71,122.38Z"/><path class="cls-2" d="M136.13,32.67a9.66,9.66,0,0,0,5.15-4.11,6.19,6.19,0,0,0,.7-2.38,22.9,22.9,0,0,1-.7,6.36c-.74,2.75-2.21,5.64-5.15,6.88a8.84,8.84,0,0,1-4,.61V33.77A18.08,18.08,0,0,0,136.13,32.67Z"/><path class="cls-2" d="M132,90.63l.11,3.41c10.66.66,9.89-13.86,9.89-13.86,0,.21,0,.4-.08.59C140.91,86.65,132,90.63,132,90.63Z"/><polygon class="cls-3" points="120.42 184.33 122.39 184.1 125.81 183.63 130.12 182.92 132.52 182.46 132.52 11.96 120.42 11.96 120.42 184.33"/><ellipse class="cls-2" cx="126.47" cy="11.97" rx="6.05" ry="3.01"/><path class="cls-4" d="M100.85,188c34.65,0,50.2-3.85,50.2-3.85-5-46.61-22.17-60.28-22.17-60.28H72.74S55.53,137.49,50.58,184.1c0,0,15.54,3.84,50.19,3.85h.08Z"/><path class="cls-5" d="M121.51,132.49s-8.6,18.35-43.37,9.11c0,0,9.5,28.8-7,45.25,0,0-12.93-1.06-20.52-2.75,0,0,1-33.28,19-57C69.6,127.14,87.35,137.12,121.51,132.49Z"/><path class="cls-5" d="M135,66.34S174.08,49,202,77.85c0,0-18.51-8.06-25.87,6.9,0,0,19.11,8.38,16.66,31.46,0,0-3-10-18.76-14.83,0,0,3.91,11.93-6.46,23.05,0,0-2-22.54-17.11-27.08"/><path class="cls-5" d="M66.61,66.4S27.87,49,0,77.85c0,0,18.51-8.06,25.87,6.9,0,0-19.11,8.38-16.66,31.46,0,0,3-10,18.76-14.83,0,0-3.91,11.93,6.46,23.05,0,0,2-22.54,17.11-27.08"/><ellipse class="cls-6" cx="55.27" cy="80.99" rx="8.29" ry="6.45" transform="translate(-38.6 109.32) rotate(-72.48)"/><ellipse class="cls-6" cx="145.85" cy="80.99" rx="6.45" ry="8.29" transform="translate(-17.62 47.65) rotate(-17.52)"/><path class="cls-4" d="M151.13,94.48c0,23-22.51,41.69-50.28,41.69S50.58,117.5,50.58,94.48,73,57.36,100.81,57.36,151.13,71.46,151.13,94.48Z"/><path class="cls-5" d="M112.59,112.88c0,8.84-5.26,11.55-11.74,11.55s-11.73-2.71-11.73-11.55,5.25-16,11.73-16S112.59,104,112.59,112.88Z"/><ellipse class="cls-7" cx="96.93" cy="115.7" rx="1.87" ry="3.82"/><ellipse class="cls-7" cx="104.78" cy="115.7" rx="1.87" ry="3.82"/><path class="cls-8" d="M74.31,96.81s4.29,2.54,7.67,0"/><path class="cls-8" d="M119.73,96.81s4.29,2.54,7.66,0"/><path class="cls-9" d="M64.71,186s-1.41-25.14,9-34.33"/><path class="cls-9" d="M136.43,186s1.41-25.14-9-34.33"/></g></g></svg>